<?xml version="1.0" encoding="UTF-8"?>
<svg id="b" data-name="レイヤー 2" xmlns="http://www.w3.org/2000/svg" width="989.03" height="151.62" viewBox="0 0 989.03 151.62">
  <g id="c" data-name="レイヤー 1">
    <g>
      <g>
        <rect x="452.39" y="0" width="30.66" height="94.76"/>
        <path d="M513.72,37.75c-33.87,0-61.33,25.49-61.33,56.93s27.46,56.93,61.33,56.93,61.33-25.49,61.33-56.93-27.46-56.93-61.33-56.93ZM513.72,123.03c-16.87,0-30.54-12.69-30.54-28.35s13.67-28.35,30.54-28.35,30.54,12.69,30.54,28.35-13.67,28.35-30.54,28.35Z"/>
        <path d="M605.72,37.75c-33.87,0-61.33,25.49-61.33,56.93s27.46,56.93,61.33,56.93,61.33-25.49,61.33-56.93-27.46-56.93-61.33-56.93ZM605.72,123.03c-16.87,0-30.54-12.69-30.54-28.35s13.67-28.35,30.54-28.35,30.54,12.69,30.54,28.35-13.67,28.35-30.54,28.35Z"/>
        <path d="M697.71,37.75c-33.87,0-61.33,25.49-61.33,56.93s27.46,56.93,61.33,56.93,61.33-25.49,61.33-56.93-27.46-56.93-61.33-56.93ZM697.71,123.03c-16.87,0-30.54-12.69-30.54-28.35s13.67-28.35,30.54-28.35,30.54,12.69,30.54,28.35-13.67,28.35-30.54,28.35Z"/>
        <path d="M789.71,37.75c-33.87,0-61.33,25.49-61.33,56.93s27.46,56.93,61.33,56.93,61.33-25.49,61.33-56.93-27.46-56.93-61.33-56.93ZM789.71,123.03c-16.87,0-30.54-12.69-30.54-28.35s13.67-28.35,30.54-28.35,30.54,12.69,30.54,28.35-13.67,28.35-30.54,28.35Z"/>
        <path d="M857.95,67.82s.01-.02.02-.02h84.93v-27.94h-92.54s-30.11,0-30.11,37.25c0,32.52,30.11,32.52,30.11,32.52h54.84v.02c3.89,0,7.04,3.1,7.04,6.92s-3.15,6.92-7.04,6.92c0,0-.01.02-.02.02h-84.93l-30.54,27.94h123.08s30.11,0,30.11-37.25c0-31.19-27.7-32.46-29.95-32.51h0s-55,0-55,0v-.02c-3.89,0-7.04-3.1-7.04-6.92s3.15-6.92,7.04-6.92Z"/>
        <g>
          <path d="M981.28,120.8c-4.19,0-7.59-3.15-7.59-7.04,0,0-.02-.01-.02-.02v-9.48h.03V0h-30.66v113.71h0v7.63s0,32.74,46,30.07v-30.63c-.07,0-7.67,0-7.74,0Z"/>
          <rect x="970.58" y="39.71" width="18.44" height="28.09"/>
        </g>
      </g>
      <g>
        <path d="M26.49,128.77h-6.75l-.15-2.4c-.05-1.04.1-1.72.1-1.72h-.1c-1.14,2.61-4.42,4.86-8.04,4.86-6.4,0-11.56-5.22-11.56-13.79s5.16-13.79,11.36-13.79c3.62,0,6.45,1.77,7.79,3.81h.1s-.15-.68-.15-2.14v-12.43h7.39v37.6ZM7,115.71c0,4.28,2.48,7.21,5.9,7.21,2.98,0,5.95-2.4,5.95-7.21s-2.98-7.21-5.95-7.21c-3.42,0-5.9,2.87-5.9,7.21Z"/>
        <path d="M31.85,102.66h6.75l.15,2.56c0,.78,0,1.41.05,1.72,1.54-2.82,4.12-5.01,7.34-5.01.79,0,1.49.1,1.59.16v7.63c-.1-.05-.69-.31-1.64-.31-3.77,0-6.85,3.5-6.85,8.25v11.12h-7.39v-26.11Z"/>
        <path d="M55.72,90.96c2.48,0,4.12,1.62,4.12,4.23s-1.64,4.18-4.12,4.18-4.12-1.67-4.12-4.18,1.59-4.23,4.12-4.23ZM59.44,102.66v26.11h-7.44v-26.11h7.44Z"/>
        <path d="M88.12,102.66l-10.96,26.43h-4.66l-11.01-26.43h7.74c1.98,5.33,4.37,11.39,5.56,15.72.55-1.41,1.59-5.12,2.48-7.47l3.13-8.25h7.74Z"/>
        <path d="M112.38,114.15c0,1.41-.15,2.66-.2,3.19h-16.27c.3,3.55,2.88,5.59,6.9,5.59,3.52,0,7.19-1.1,8.58-1.93v6.63c-1.54.84-4.86,1.88-9.28,1.88-8.53,0-13.89-5.8-13.89-13.79s5.51-13.79,12.6-13.79c7.64,0,11.56,5.74,11.56,12.22ZM100.77,108.09c-2.98,0-4.66,2.4-4.86,5.22h9.38c.1-2.82-1.49-5.22-4.51-5.22Z"/>
        <path d="M123.39,118.38c-4.61-1.36-7.89-3.4-7.89-8.46s3.67-7.99,9.43-7.99c3.57,0,6.55.94,8.04,1.62v6.69c-1.64-.89-4.12-1.72-6.3-1.93-.79-.05-1.59-.05-2.28.11-1.04.21-2.08.73-2.08,1.88,0,1.31,1.24,1.98,3.87,2.82,5.66,1.67,8.33,3.76,8.33,8.46,0,5.01-3.92,7.94-10.22,7.94-3.77,0-6.65-.89-8.43-1.72v-6.84c2.33,1.31,5.9,2.4,8.34,2.4,1.84,0,3.52-.52,3.52-2.09,0-1.41-1.49-1.98-4.32-2.87Z"/>
        <path d="M151.02,127.36v-7.73c2.48,1.36,5.76,2.51,8.98,2.72,1.14.05,2.23,0,3.18-.21,2.73-.42,4.32-1.51,4.32-3.34,0-2.51-2.13-3.81-7.05-5.69-6.25-2.4-9.92-5.17-9.92-11.7s5.26-10.97,12.95-10.97c3.57,0,7.09.84,9.33,1.88v7.42c-2.08-1.31-5.46-2.3-8.73-2.3-3.67,0-6.05,1.51-6.05,3.92,0,2.19,1.94,3.71,6.8,5.64,6.25,2.56,10.12,5.33,10.12,11.65,0,6.79-4.86,10.86-13.3,10.86-4.07,0-8.04-.94-10.62-2.14Z"/>
        <path d="M191.56,122.66c2.98,0,5.66-1.46,6.6-2.14v7.05c-.99.52-3.57,1.93-7.59,1.93-7.94,0-13.2-5.85-13.2-13.79s5.26-13.79,13.2-13.79c3.97,0,6.45,1.36,7.44,1.88v7.1c-1.39-1.05-3.87-2.14-6.45-2.14-3.92,0-6.7,2.72-6.7,6.95s2.68,6.95,6.7,6.95Z"/>
        <path d="M202.67,103.7c1.39-.68,4.71-1.77,9.08-1.77,7.64,0,11.46,3.86,11.46,10.39v16.45h-6.7l-.15-2.4c-.05-1.1.1-1.83.1-1.83h-.1c-.64,1.57-3.13,4.96-7.69,4.96-4.27,0-7.89-2.61-7.89-7.94,0-6.37,6.15-9.51,15.08-8.2v-.63c0-3.13-2.03-4.28-5.31-4.28s-6.25,1.15-7.89,2.25v-7ZM215.67,117.44c-5.56-.94-7.89.89-7.89,3.34,0,1.67,1.09,2.77,2.83,2.77,2.88,0,5.06-2.77,5.06-6.11Z"/>
        <path d="M235.91,91.17v37.6h-7.39v-37.6h7.39Z"/>
        <path d="M241.87,103.7c1.39-.68,4.71-1.77,9.08-1.77,7.64,0,11.46,3.86,11.46,10.39v16.45h-6.7l-.15-2.4c-.05-1.1.1-1.83.1-1.83h-.1c-.64,1.57-3.13,4.96-7.69,4.96-4.27,0-7.89-2.61-7.89-7.94,0-6.37,6.15-9.51,15.08-8.2v-.63c0-3.13-2.03-4.28-5.31-4.28s-6.25,1.15-7.89,2.25v-7ZM254.87,117.44c-5.56-.94-7.89.89-7.89,3.34,0,1.67,1.09,2.77,2.83,2.77,2.88,0,5.06-2.77,5.06-6.11Z"/>
        <path d="M268.31,91.17h7.44v12.43c0,1.46-.15,2.14-.15,2.14h.1c1.29-2.04,4.12-3.81,7.74-3.81,6.25,0,11.41,5.17,11.41,13.79s-5.16,13.79-11.56,13.79c-3.67,0-6.95-2.25-8.09-4.86h-.1s.2.68.1,1.72l-.15,2.4h-6.75v-37.6ZM275.95,115.71c0,4.81,2.98,7.21,6,7.21,3.42,0,5.9-2.92,5.9-7.21s-2.48-7.21-5.9-7.21c-3.03,0-6,2.4-6,7.21Z"/>
        <path d="M302.64,90.96c2.48,0,4.12,1.62,4.12,4.23s-1.64,4.18-4.12,4.18-4.12-1.67-4.12-4.18,1.59-4.23,4.12-4.23ZM306.37,102.66v26.11h-7.44v-26.11h7.44Z"/>
        <path d="M312.22,91.17h7.39v28.41c0,2.4.99,3.24,2.48,3.24.99,0,2.03-.31,2.48-.52v6.42c-.64.31-2.38.78-4.71.78-4.22,0-7.64-2.25-7.64-8.2v-30.14Z"/>
        <path d="M332.36,90.96c2.48,0,4.12,1.62,4.12,4.23s-1.64,4.18-4.12,4.18-4.12-1.67-4.12-4.18,1.59-4.23,4.12-4.23ZM336.08,102.66v26.11h-7.44v-26.11h7.44Z"/>
        <path d="M343.38,102.66v-7.83h7.19v7.83h6.6v6.11h-6.6v10.5c0,2.77,1.54,3.71,3.18,3.71,1.54,0,3.13-.52,4.22-1.1v6.42c-1.09.57-3.37,1.2-6.3,1.2-3.92,0-7.74-1.93-8.29-7.42-.05-.84-.15-1.72-.15-2.66v-10.66h-3.42v-6.11h3.57Z"/>
        <path d="M360.1,133.52c.45.21,1.54.52,2.93.52,3.28,0,4.96-2.3,6.3-5.28l-10.22-26.11h8.14l2.88,9.09c1.04,3.19,2.08,6.42,2.93,9.71.65-1.46,2.28-7.78,2.98-9.71l2.88-9.09h8.04l-9.63,25.91c-2.83,7.73-6.55,11.59-11.76,12.22-1.14.16-2.18.16-3.13.05-.99-.1-1.94-.26-2.33-.47v-6.84Z"/>
      </g>
      <g>
        <path d="M73.32,61.18v-7.73c2.48,1.36,5.76,2.51,8.98,2.72,1.14.05,2.23,0,3.18-.21,2.73-.42,4.32-1.51,4.32-3.34,0-2.51-2.13-3.81-7.05-5.69-6.25-2.4-9.92-5.17-9.92-11.7s5.26-10.97,12.95-10.97c3.57,0,7.09.84,9.33,1.88v7.42c-2.08-1.31-5.46-2.3-8.73-2.3-3.67,0-6.05,1.51-6.05,3.92,0,2.19,1.94,3.71,6.8,5.64,6.25,2.56,10.12,5.33,10.12,11.65,0,6.79-4.86,10.86-13.3,10.86-4.07,0-8.04-.94-10.62-2.14Z"/>
        <path d="M117.48,62.59l-.2-2.98c-.05-.94.1-1.57.2-1.83h-.1c-1.04,2.4-4.32,5.54-8.43,5.54-5.61,0-8.63-3.6-8.63-10.5v-16.35h7.44v15.04c0,2.61.69,4.7,3.37,4.7,3.37,0,5.71-2.82,5.71-6.74v-13.01h7.39v26.11h-6.75Z"/>
        <path d="M136.23,52.2c-4.61-1.36-7.89-3.4-7.89-8.46s3.67-7.99,9.43-7.99c3.57,0,6.55.94,8.04,1.62v6.69c-1.64-.89-4.12-1.72-6.3-1.93-.79-.05-1.59-.05-2.28.11-1.04.21-2.08.73-2.08,1.88,0,1.31,1.24,1.98,3.87,2.82,5.66,1.67,8.33,3.76,8.33,8.46,0,5.01-3.92,7.94-10.22,7.94-3.77,0-6.65-.89-8.43-1.72v-6.84c2.33,1.31,5.9,2.4,8.34,2.4,1.84,0,3.52-.52,3.52-2.09,0-1.41-1.49-1.98-4.32-2.87Z"/>
        <path d="M152.71,36.48v-7.83h7.19v7.83h6.6v6.11h-6.6v10.5c0,2.77,1.54,3.71,3.18,3.71,1.54,0,3.13-.52,4.22-1.1v6.42c-1.09.57-3.37,1.2-6.3,1.2-3.92,0-7.74-1.93-8.29-7.42-.05-.84-.15-1.72-.15-2.66v-10.66h-3.42v-6.11h3.57Z"/>
        <path d="M172.35,37.52c1.39-.68,4.71-1.77,9.08-1.77,7.64,0,11.46,3.86,11.46,10.39v16.45h-6.7l-.15-2.4c-.05-1.1.1-1.83.1-1.83h-.1c-.64,1.57-3.13,4.96-7.69,4.96-4.27,0-7.89-2.61-7.89-7.94,0-6.37,6.15-9.51,15.08-8.2v-.63c0-3.13-2.03-4.28-5.31-4.28s-6.25,1.15-7.89,2.25v-7ZM185.35,51.26c-5.56-.94-7.89.89-7.89,3.34,0,1.67,1.09,2.77,2.83,2.77,2.88,0,5.06-2.77,5.06-6.11Z"/>
        <path d="M201.77,24.78c2.48,0,4.12,1.62,4.12,4.23s-1.64,4.18-4.12,4.18-4.12-1.67-4.12-4.18,1.59-4.23,4.12-4.23ZM205.49,36.48v26.11h-7.44v-26.11h7.44Z"/>
        <path d="M218,36.48l.2,2.98c.05.94-.15,1.57-.2,1.83h.1c1.04-2.4,4.32-5.54,8.53-5.54,5.61,0,8.63,3.6,8.63,10.5v16.35h-7.44v-15.04c0-2.56-.69-4.7-3.37-4.7-3.47,0-5.81,2.82-5.81,6.74v13.01h-7.44v-26.11h6.8Z"/>
        <path d="M241.07,37.52c1.39-.68,4.71-1.77,9.08-1.77,7.64,0,11.46,3.86,11.46,10.39v16.45h-6.7l-.15-2.4c-.05-1.1.1-1.83.1-1.83h-.1c-.64,1.57-3.13,4.96-7.69,4.96-4.27,0-7.89-2.61-7.89-7.94,0-6.37,6.15-9.51,15.08-8.2v-.63c0-3.13-2.03-4.28-5.31-4.28s-6.25,1.15-7.89,2.25v-7ZM254.07,51.26c-5.56-.94-7.89.89-7.89,3.34,0,1.67,1.09,2.77,2.83,2.77,2.88,0,5.06-2.77,5.06-6.11Z"/>
        <path d="M267.51,24.99h7.44v12.43c0,1.46-.15,2.14-.15,2.14h.1c1.29-2.04,4.12-3.81,7.74-3.81,6.25,0,11.41,5.17,11.41,13.79s-5.16,13.79-11.56,13.79c-3.67,0-6.95-2.25-8.09-4.86h-.1s.2.68.1,1.72l-.15,2.4h-6.75V24.99ZM275.15,49.54c0,4.81,2.98,7.21,6,7.21,3.42,0,5.9-2.92,5.9-7.21s-2.48-7.21-5.9-7.21c-3.03,0-6,2.4-6,7.21Z"/>
        <path d="M301.84,24.78c2.48,0,4.12,1.62,4.12,4.23s-1.64,4.18-4.12,4.18-4.12-1.67-4.12-4.18,1.59-4.23,4.12-4.23ZM305.56,36.48v26.11h-7.44v-26.11h7.44Z"/>
        <path d="M311.42,24.99h7.39v28.41c0,2.4.99,3.24,2.48,3.24.99,0,2.03-.31,2.48-.52v6.42c-.65.31-2.38.78-4.71.78-4.22,0-7.64-2.25-7.64-8.2v-30.14Z"/>
        <path d="M331.56,24.78c2.48,0,4.12,1.62,4.12,4.23s-1.64,4.18-4.12,4.18-4.12-1.67-4.12-4.18,1.59-4.23,4.12-4.23ZM335.28,36.48v26.11h-7.44v-26.11h7.44Z"/>
        <path d="M342.58,36.48v-7.83h7.19v7.83h6.6v6.11h-6.6v10.5c0,2.77,1.54,3.71,3.18,3.71,1.54,0,3.13-.52,4.22-1.1v6.42c-1.09.57-3.37,1.2-6.3,1.2-3.92,0-7.74-1.93-8.29-7.42-.05-.84-.15-1.72-.15-2.66v-10.66h-3.42v-6.11h3.57Z"/>
        <path d="M359.3,67.35c.45.21,1.54.52,2.93.52,3.27,0,4.96-2.3,6.3-5.28l-10.22-26.11h8.14l2.88,9.09c1.04,3.19,2.08,6.42,2.93,9.71.65-1.46,2.28-7.78,2.98-9.71l2.88-9.09h8.04l-9.63,25.91c-2.83,7.73-6.55,11.59-11.76,12.22-1.14.16-2.18.16-3.13.05-.99-.1-1.94-.26-2.33-.47v-6.84Z"/>
      </g>
    </g>
  </g>
</svg>