<svg xmlns="http://www.w3.org/2000/svg" width="172.999" height="39.999" viewBox="0 0 172.999 39.999"><defs><style>.a{fill:#1e88e5;}</style></defs><path class="a" d="M80.377,11.874q2.814,0,3.917,1.082A4.079,4.079,0,0,1,85.4,16a5.425,5.425,0,0,1-.439,2.3,3.083,3.083,0,0,1-1.541,1.474,7.143,7.143,0,0,1-3.04.53H77.436V23H73.958q.114-2.979.113-5.573t-.113-5.574h3.478v.016Zm-.989,5.465a11.488,11.488,0,0,0,1.76-.1,1.4,1.4,0,0,0,.82-.361,1.116,1.116,0,0,0,.233-.768,1.136,1.136,0,0,0-.219-.76,1.316,1.316,0,0,0-.806-.345,12.519,12.519,0,0,0-1.788-.092H77.436v2.425Zm18.988-5.481q-.1,2.6-.1,5.574t.1,5.573H95.053V18.829h-5.2V23H86.528q.112-2.979.113-5.573t-.113-5.574H89.85v4.176h5.2V11.858Zm7.55.016q2.814,0,3.917,1.082a4.079,4.079,0,0,1,1.1,3.048,5.425,5.425,0,0,1-.439,2.3,3.083,3.083,0,0,1-1.541,1.474,7.143,7.143,0,0,1-3.04.53h-2.941V23H99.507q.112-2.979.113-5.573t-.113-5.574h3.478v.016Zm-.989,5.465a11.488,11.488,0,0,0,1.76-.1,1.4,1.4,0,0,0,.82-.361,1.121,1.121,0,0,0,.233-.768,1.136,1.136,0,0,0-.219-.76,1.316,1.316,0,0,0-.806-.345,12.519,12.519,0,0,0-1.788-.092h-1.952v2.425Zm14.619,1.827h-4.609a1.889,1.889,0,0,0,.558,1.1,1.767,1.767,0,0,0,1.266.423,2.529,2.529,0,0,0,1.117-.254,2.081,2.081,0,0,0,.834-.714,20.927,20.927,0,0,0,2.517,1.09,3.425,3.425,0,0,1-1.591,1.712,6.182,6.182,0,0,1-3,.637,4.71,4.71,0,0,1-3.556-1.205,4.392,4.392,0,0,1-1.153-3.17,4.32,4.32,0,0,1,1.146-3.117,4.728,4.728,0,0,1,3.563-1.2,5.62,5.62,0,0,1,2.5.522,3.829,3.829,0,0,1,1.626,1.451,4.01,4.01,0,0,1,.566,2.127,4.566,4.566,0,0,1-.029.6Zm-3.874-2.088a1.555,1.555,0,0,0-.636.8h3.337a1.67,1.67,0,0,0-.552-.791,1.559,1.559,0,0,0-.99-.3,2.108,2.108,0,0,0-1.159.291m9.926-.184a2.783,2.783,0,0,1,2.955-2.318,4.962,4.962,0,0,1,.791.061l-.452,3.439a4.676,4.676,0,0,0-1.668-.414,1.372,1.372,0,0,0-1.188.522,2.313,2.313,0,0,0-.382,1.4v-.015l-.014,1.013q0,1.09.057,2.426h-3.38q.114-2.211.114-4.176t-.114-4.207q.933.047,1.428.046.523,0,1.428-.046ZM137.866,23q-.664-1.3-2.206-3.992l-1.654,1.781V23h-3.521q.114-2.979.113-5.573t-.113-5.574h3.521v4.5a35.808,35.808,0,0,0,3.7-4.5h4.581l-4.453,4.79q.988,1.506,2.226,3.271T142.3,23ZM152.5,20.456a1.7,1.7,0,0,0,.114.737.67.67,0,0,0,.452.307l-.057,1.444c-.3.051-.563.086-.784.107s-.516.031-.884.031a1.823,1.823,0,0,1-1.612-.591,2.667,2.667,0,0,1-.4-1.513v-.384a3.778,3.778,0,0,1-1.194,1.873,3.15,3.15,0,0,1-2,.615,3.184,3.184,0,0,1-2.128-.615,2.277,2.277,0,0,1-.714-1.827,2.041,2.041,0,0,1,.608-1.566,3.6,3.6,0,0,1,1.881-.783,19.056,19.056,0,0,0-2.15-1.443,6.05,6.05,0,0,1,1.937-1.773,5.363,5.363,0,0,1,2.644-.607,4.489,4.489,0,0,1,3.231,1.021,4.2,4.2,0,0,1,1.053,3.14Zm-5.259-3.024a2.924,2.924,0,0,0-.99.783,17.28,17.28,0,0,1,2.121-.108,1.425,1.425,0,0,0,.735-.138.411.411,0,0,0,.212-.353.373.373,0,0,0-.212-.315,1.133,1.133,0,0,0-.594-.131,2.94,2.94,0,0,0-1.272.262m1.216,2.817a1.832,1.832,0,0,0,.876-.867v-.4a3.069,3.069,0,0,1-.749.284c-.274.067-.6.131-.99.192l-.509.092q-.792.17-.792.584,0,.445.736.445a3.057,3.057,0,0,0,1.428-.33m6.03-7.009A1.779,1.779,0,0,1,154.055,12a1.814,1.814,0,0,1,.431-1.243,1.986,1.986,0,0,1,2.623.007A1.775,1.775,0,0,1,157.561,12a1.764,1.764,0,0,1-.438,1.244,2.064,2.064,0,0,1-2.637,0M154.168,23q.1-2.472.1-4.084,0-1.92-.113-4.3h3.393q-.114,2.287-.113,4.3,0,1.689.1,4.084Zm11.339-8.383h2.715q-.072,2.519-.071,7.155a5.946,5.946,0,0,1-.672,2.994,4.069,4.069,0,0,1-1.774,1.7,5.616,5.616,0,0,1-2.46.53,6.464,6.464,0,0,1-2.4-.422,3.747,3.747,0,0,1-1.612-1.129l.636-2.349a6.181,6.181,0,0,0,1.442.683,4.824,4.824,0,0,0,1.414.208q2.4,0,2.4-2.211c0-.215.005-.369.014-.461,0-.061,0-.143.007-.246s0-.235-.007-.4a2.934,2.934,0,0,1-3.054,2.18A2.758,2.758,0,0,1,160.4,22.3a3.618,3.618,0,0,1-1.153-1.5,5.177,5.177,0,0,1-.41-2.081,5.484,5.484,0,0,1,.41-2.142,3.731,3.731,0,0,1,1.145-1.543,2.644,2.644,0,0,1,1.655-.568,2.979,2.979,0,0,1,3.11,1.827Zm-1.273,5.612a1.505,1.505,0,0,0,.863-1.421,1.908,1.908,0,0,0-.4-1.358,1.564,1.564,0,0,0-1.174-.407,1.3,1.3,0,0,0-1.074.491,1.967,1.967,0,0,0-.4,1.274,1.556,1.556,0,0,0,.431,1.144,1.441,1.441,0,0,0,1.068.438,1.639,1.639,0,0,0,.678-.161m5.691-6.994A1.778,1.778,0,0,1,169.494,12a1.814,1.814,0,0,1,.431-1.243,1.986,1.986,0,0,1,2.623.007A1.776,1.776,0,0,1,173,12a1.764,1.764,0,0,1-.438,1.244,2.064,2.064,0,0,1-2.637,0M169.607,23q.1-2.472.1-4.084,0-1.92-.113-4.3h3.393q-.112,2.287-.113,4.3,0,1.689.1,4.084ZM110.375,35.329a10.532,10.532,0,0,0-.493,3.028H99.808l-.014-.295a3.723,3.723,0,0,1,.81-2.4,8.2,8.2,0,0,1,2.261-1.873,12.706,12.706,0,0,1,1.325-.647,15.179,15.179,0,0,0,1.8-.9q.635-.387.634-.767a.888.888,0,0,0-.394-.761,2.13,2.13,0,0,0-1.226-.282,1.9,1.9,0,0,0-1.388.465,1.59,1.59,0,0,0-.472,1.183,2.7,2.7,0,0,0,.042.465q-1.775-.225-3.451-.31a3.876,3.876,0,0,1,.627-2.162,4.228,4.228,0,0,1,1.887-1.528,7.582,7.582,0,0,1,3.093-.563,7.435,7.435,0,0,1,2.8.458A3.82,3.82,0,0,1,109.79,29.6a2.344,2.344,0,0,1,.528,1.429,2.712,2.712,0,0,1-.373,1.451,3.584,3.584,0,0,1-1.071,1.077,14.027,14.027,0,0,1-1.866,1.021,3.339,3.339,0,0,1-.55.19l-.479.134q-1,.3-1.592.493a6.276,6.276,0,0,0-1.113.493q4.578-.254,7.1-.564M113.6,37.1a5.144,5.144,0,0,1-1.437-3.873,5.089,5.089,0,0,1,1.444-3.852,7.85,7.85,0,0,1,8.911,0,5.1,5.1,0,0,1,1.438,3.852,5.141,5.141,0,0,1-1.438,3.873,7.829,7.829,0,0,1-8.918,0m6.368-1.866a3.674,3.674,0,0,0,0-4,2.2,2.2,0,0,0-1.888-.8,2.269,2.269,0,0,0-1.937.8,3.632,3.632,0,0,0,0,3.993,2.259,2.259,0,0,0,1.937.8,2.2,2.2,0,0,0,1.888-.8m16.414.091a9.751,9.751,0,0,0-.366,1.55,9.654,9.654,0,0,0-.127,1.478H125.816l-.014-.295a3.723,3.723,0,0,1,.81-2.4,8.19,8.19,0,0,1,2.262-1.873,12.567,12.567,0,0,1,1.324-.647,15.1,15.1,0,0,0,1.8-.9q.634-.387.634-.767a.888.888,0,0,0-.394-.761,2.128,2.128,0,0,0-1.226-.282,1.9,1.9,0,0,0-1.388.465,1.594,1.594,0,0,0-.472,1.183,2.7,2.7,0,0,0,.043.465q-1.776-.225-3.452-.31a3.884,3.884,0,0,1,.627-2.162,4.231,4.231,0,0,1,1.888-1.528,7.573,7.573,0,0,1,3.092-.563,7.435,7.435,0,0,1,2.8.458A3.814,3.814,0,0,1,135.8,29.6a2.345,2.345,0,0,1,.529,1.429,2.713,2.713,0,0,1-.374,1.451,3.584,3.584,0,0,1-1.071,1.077,14.028,14.028,0,0,1-1.866,1.021,3.339,3.339,0,0,1-.55.19l-.479.134q-1,.3-1.592.493a6.309,6.309,0,0,0-1.113.493q4.58-.254,7.1-.564m10.94-3.724a3.613,3.613,0,0,1,1.634,1.2,2.809,2.809,0,0,1,.543,1.682,3.375,3.375,0,0,1-1.473,3.064,7.182,7.182,0,0,1-3.937.95,8.9,8.9,0,0,1-3.642-.7,4.317,4.317,0,0,1-2.276-2.345,14.1,14.1,0,0,0,1.7-.366q.923-.253,1.669-.521a1.877,1.877,0,0,0,.832.88,3.171,3.171,0,0,0,1.437.275,3.566,3.566,0,0,0,1.585-.31.949.949,0,0,0,.627-.859,1.119,1.119,0,0,0-.55-.944,2.973,2.973,0,0,0-1.676-.38,3.349,3.349,0,0,0-1.339.261,1.738,1.738,0,0,0-.873.739h-3.255q.339-1.45.6-3.127a27.348,27.348,0,0,0,.317-2.971h9.89v2.732q-1.563-.1-2.951-.12t-3.882-.021l-.141.789a7.886,7.886,0,0,1,2.466-.352,7.187,7.187,0,0,1,2.7.444M42.359,3.79A17.064,17.064,0,0,0,30.944,0c-11.322.073-16.8,15.054-13.071,24.322a28.693,28.693,0,0,0,6.461,9.412c.99,1,2,1.987,3,2.966A15.622,15.622,0,0,0,31.378,40s-3.193-5.972-3.345-6.359a15.867,15.867,0,0,1-1.106-3.872c-.092-.763.313-2.995-.284-3.545a21.076,21.076,0,0,0,6.385,4.043c6.2,2.5,13.361.051,15.981-6.146C52.068,16.889,48,8.591,42.359,3.79M40.768,22.56c-4.279,2.471-10.271-1.368-11.965-5.4-1.8-4.272,2.055-8.839,6.137-9.322,6.121-.724,10.634,7.178,7.958,12.395a5.5,5.5,0,0,1-2.13,2.326m-.134-11.418a4.7,4.7,0,0,0-5.417,3.846,4.554,4.554,0,1,0,8.908,1.806,4.7,4.7,0,0,0-3.491-5.652M10.206,32.786,9.659,33.8l11.315,6.189.154-.287Zm3.064-3.457-.7.8,9.329,8.23.2-.227Zm.98,4.487a5.684,5.684,0,0,0,.983.66,5.728,5.728,0,0,0-.639-1,9.65,9.65,0,0,0-.763-.876,9.949,9.949,0,0,0-.86-.78,5.806,5.806,0,0,0-.983-.661,5.72,5.72,0,0,0,.639,1,9.833,9.833,0,0,0,.762.877,9.672,9.672,0,0,0,.861.781M4.819,27.1a4.195,4.195,0,0,0-.46,3.008,4.113,4.113,0,0,0,1.1,2.015,3.287,3.287,0,0,0-.538,1.761,3.224,3.224,0,0,0,.248,1.281,3.119,3.119,0,0,0,.727,1.053,2.983,2.983,0,0,0,2.253.826,2.845,2.845,0,0,0,1.12-.317,2.576,2.576,0,0,0,.848-.722,2.675,2.675,0,0,1-1.954.5,2.4,2.4,0,0,1-1.578-.918,2.212,2.212,0,0,1-.439-1.628,2.091,2.091,0,0,1,.787-1.381l.673-.521-.712-.594a2.2,2.2,0,0,1-.357-.351c-.05-.067-.109-.126-.155-.2l-.137-.207a2.812,2.812,0,0,1-.337-.916,2.778,2.778,0,0,1,.328-1.873,2.724,2.724,0,0,1,.621-.737,2.9,2.9,0,0,1,.838-.477,2.944,2.944,0,0,1,.962-.157,2.905,2.905,0,0,1,.967.185l.695.263.261-.613A2.039,2.039,0,0,1,11.84,25.26a2.176,2.176,0,0,1,1.786.216,2.382,2.382,0,0,1,1.108,1.606,2.688,2.688,0,0,1-.514,2.1,2.729,2.729,0,0,0,1.091-2.146,2.9,2.9,0,0,0-.273-1.288,3.129,3.129,0,0,0-2.076-1.707,3.286,3.286,0,0,0-3.337,1.118,4.094,4.094,0,0,0-2.436.025A4.208,4.208,0,0,0,4.819,27.1M1.527,38.743a2.852,2.852,0,0,1,.04-3.656A3.35,3.35,0,0,1,3.407,34a2.667,2.667,0,0,0-2.326.589,3.074,3.074,0,0,0-.049,4.637,2.67,2.67,0,0,0,2.313.639,3.335,3.335,0,0,1-1.818-1.123M10.794,22.3a2.648,2.648,0,0,1,3.361.445,3.108,3.108,0,0,1,.793,1.813,2.466,2.466,0,0,0-.283-2.2A2.849,2.849,0,0,0,10.4,21.8a2.472,2.472,0,0,0-.847,2.055A3.1,3.1,0,0,1,10.794,22.3m45.281,3.945L54.927,25.2,43.1,37.919l.324.3Zm3.5,5.144-.819-1.179L44.921,39.667l.231.333Zm-6.187-.206A7.715,7.715,0,0,0,52.2,32.251a7.691,7.691,0,0,0,1.514-.5,12.968,12.968,0,0,0,1.4-.7,13.275,13.275,0,0,0,1.3-.866,7.915,7.915,0,0,0,1.189-1.064,7.735,7.735,0,0,0-1.514.5,13.346,13.346,0,0,0-1.4.7,13.1,13.1,0,0,0-1.305.865M65.279,21.095A5.663,5.663,0,0,0,61.5,19.5a5.559,5.559,0,0,0-2.995.766,4.439,4.439,0,0,0-2.122-1.285,4.352,4.352,0,0,0-1.757-.1,4.2,4.2,0,0,0-1.615.6,4.016,4.016,0,0,0-1.826,2.668,3.839,3.839,0,0,0,.044,1.567,3.467,3.467,0,0,0,.663,1.346,3.589,3.589,0,0,1,0-2.714,3.233,3.233,0,0,1,1.721-1.757,2.984,2.984,0,0,1,2.274-.034,2.817,2.817,0,0,1,1.542,1.484l.459,1.051,1.011-.733a2.955,2.955,0,0,1,.577-.35c.1-.043.2-.1.306-.137l.315-.11a3.731,3.731,0,0,1,4.4,1.964,3.921,3.921,0,0,1,.345,1.252,3.961,3.961,0,0,1-.113,1.308,3.889,3.889,0,0,1-.562,1.2l-.573.821.714.544a2.74,2.74,0,0,1,1.053,2.021,2.924,2.924,0,0,1-.873,2.258,3.211,3.211,0,0,1-2.465.916,3.629,3.629,0,0,1-2.58-1.368,3.678,3.678,0,0,0,2.444,2.135,3.918,3.918,0,0,0,1.772.07,4.211,4.211,0,0,0,2.917-2.145,4.442,4.442,0,0,0,.182-3.781,4.49,4.49,0,0,0-.539-.946A5.488,5.488,0,0,0,67,24.824a5.678,5.678,0,0,0-1.72-3.729M54.274,16.272a3.563,3.563,0,0,1,4.414,1.17A4.177,4.177,0,0,1,59.437,20a3.325,3.325,0,0,0,0-2.994,3.84,3.84,0,0,0-5.6-1.481,3.332,3.332,0,0,0-1.483,2.6,4.166,4.166,0,0,1,1.918-1.855m15.3,14.212a3.562,3.562,0,0,1-1.693,4.24,4.19,4.19,0,0,1-2.631.436,3.326,3.326,0,0,0,2.973.36,3.837,3.837,0,0,0,2.145-5.377,3.333,3.333,0,0,0-2.405-1.785,4.176,4.176,0,0,1,1.611,2.126" transform="translate(-0.001 -0.001)"/></svg>